<?xml version="1.0" encoding="UTF-8"?>
<svg id="Layer_1" xmlns="http://www.w3.org/2000/svg" version="1.1" viewBox="0 0 1280 720">
  <!-- Generator: Adobe Illustrator 29.2.1, SVG Export Plug-In . SVG Version: 2.1.0 Build 116)  -->
  <defs>
    <style>
      .st0, .st1, .st2, .st3, .st4, .st5, .st6, .st7 {
        fill: none;
        stroke-miterlimit: 10;
      }

      .st0, .st2 {
        stroke-width: 2.2px;
      }

      .st0, .st6, .st7 {
        stroke: #040747;
      }

      .st1, .st2 {
        stroke: #1958fd;
      }

      .st1, .st5, .st7 {
        stroke-width: 2.6px;
      }

      .st8, .st9 {
        fill: #1958fd;
      }

      .st8, .st10, .st11 {
        opacity: .2;
      }

      .st12, .st13, .st14, .st15, .st11, .st16 {
        fill: #040747;
      }

      .st3 {
        stroke: #ddd;
        stroke-width: 6.6px;
      }

      .st17 {
        fill: #ddd;
      }

      .st10, .st18 {
        fill: #63dcfa;
      }

      .st4 {
        stroke-width: 1.9px;
      }

      .st4, .st5 {
        stroke: #63dcfa;
      }

      .st13 {
        font-family: HKGrotesk-Bold, 'HK Grotesk';
        font-size: 13.2px;
        font-weight: 700;
      }

      .st14, .st15, .st19 {
        font-family: HKGrotesk-Black, 'HK Grotesk';
        font-weight: 800;
      }

      .st14, .st19 {
        font-size: 16px;
      }

      .st15 {
        font-size: 34.4px;
      }

      .st16 {
        font-family: HKGrotesk-Medium, 'HK Grotesk';
        font-size: 14.4px;
        font-weight: 500;
      }

      .st19 {
        fill: #fff;
      }

      .st6 {
        stroke-width: 2.6px;
      }
    </style>
  </defs>
  <rect class="st9" x="180.3" y="80.4" width="250.8" height="47"/>
  <rect class="st18" x="180.3" y="394" width="254.1" height="43.8"/>
  <rect class="st12" x="434.4" y="80.4" width="369.1" height="47"/>
  <rect class="st9" x="806.3" y="80.4" width="253" height="47"/>
  <line class="st3" x1="434.4" y1="80.4" x2="434.4" y2="701.1"/>
  <line class="st3" x1="803.4" y1="80.4" x2="803.4" y2="701.1"/>
  <line class="st3" x1="434.4" y1="390.8" x2="180.3" y2="390.8"/>
  <rect class="st11" x="524.5" y="154.4" width="190.6" height="56.2" rx="10.7" ry="10.7"/>
  <rect class="st0" x="524.5" y="154.4" width="190.6" height="56.2" rx="10.7" ry="10.7"/>
  <rect class="st11" x="526.1" y="474.7" width="190.6" height="56.2" rx="10.7" ry="10.7"/>
  <rect class="st0" x="526.1" y="474.7" width="190.6" height="56.2" rx="10.7" ry="10.7"/>
  <path class="st17" d="M1059.2,80.4v620.6H180.3V80.4h879M1066.3,73.4H173.2v634.8h893.1V73.4h0Z"/>
  <rect class="st11" x="472.4" y="362.7" width="190.6" height="56.2" rx="10.7" ry="10.7"/>
  <rect class="st0" x="472.4" y="362.7" width="190.6" height="56.2" rx="10.7" ry="10.7"/>
  <rect class="st8" x="210.1" y="230.7" width="190.6" height="56.2" rx="10.7" ry="10.7"/>
  <rect class="st2" x="210.1" y="230.7" width="190.6" height="56.2" rx="10.7" ry="10.7"/>
  <rect class="st8" x="837" y="474.7" width="190.6" height="56.2" rx="10.7" ry="10.7"/>
  <rect class="st2" x="837" y="474.7" width="190.6" height="56.2" rx="10.7" ry="10.7"/>
  <rect class="st8" x="837" y="551" width="190.6" height="56.2" rx="10.7" ry="10.7"/>
  <rect class="st2" x="837" y="551" width="190.6" height="56.2" rx="10.7" ry="10.7"/>
  <rect class="st8" x="837" y="627.4" width="190.6" height="56.2" rx="10.7" ry="10.7"/>
  <rect class="st2" x="837" y="627.4" width="190.6" height="56.2" rx="10.7" ry="10.7"/>
  <rect class="st8" x="210.1" y="154.4" width="190.6" height="56.2" rx="10.7" ry="10.7"/>
  <rect class="st2" x="210.1" y="154.4" width="190.6" height="56.2" rx="10.7" ry="10.7"/>
  <text class="st16" transform="translate(279.5 179.5)"><tspan x="0" y="0">Number </tspan><tspan x="-3.2" y="16">of States</tspan></text>
  <rect class="st8" x="210.1" y="307.1" width="190.6" height="56.2" rx="10.7" ry="10.7"/>
  <rect class="st2" x="210.1" y="307.1" width="190.6" height="56.2" rx="10.7" ry="10.7"/>
  <text class="st16" transform="translate(234.7 332.2)"><tspan x="0" y="0">Additional SB-Specific </tspan><tspan x="33" y="16">Information</tspan></text>
  <rect class="st10" x="210.1" y="465.2" width="190.6" height="41.7" rx="9.2" ry="9.2"/>
  <rect class="st4" x="210.1" y="465.2" width="190.6" height="41.7" rx="9.2" ry="9.2"/>
  <rect class="st10" x="210.1" y="521.7" width="190.6" height="41.7" rx="9.2" ry="9.2"/>
  <rect class="st4" x="210.1" y="521.7" width="190.6" height="41.7" rx="9.2" ry="9.2"/>
  <rect class="st10" x="210.1" y="578.2" width="190.6" height="41.7" rx="9.2" ry="9.2"/>
  <rect class="st4" x="210.1" y="578.2" width="190.6" height="41.7" rx="9.2" ry="9.2"/>
  <rect class="st10" x="210.1" y="634.7" width="190.6" height="41.7" rx="9.2" ry="9.2"/>
  <rect class="st4" x="210.1" y="634.7" width="190.6" height="41.7" rx="9.2" ry="9.2"/>
  <text class="st16" transform="translate(259.8 490.9)"><tspan x="0" y="0">Auxiliary Data</tspan></text>
  <text class="st16" transform="translate(240.4 547.4)"><tspan x="0" y="0">Prior State Estimate</tspan></text>
  <text class="st16" transform="translate(272 603.8)"><tspan x="0" y="0">Prior Time</tspan></text>
  <text class="st16" transform="translate(248.5 660.3)"><tspan x="0" y="0">Propagation Time</tspan></text>
  <g>
    <line class="st1" x1="400.7" y1="182.5" x2="516.1" y2="182.5"/>
    <polygon class="st9" points="507.7 189.6 514.8 182.5 507.7 175.3 513.8 175.3 520.9 182.5 513.8 189.6 507.7 189.6"/>
  </g>
  <path class="st1" d="M400.7,258.8h35.6c6.2,0,11.3-5,11.3-11.3v-53.8c0-6.2,5-11.3,11.3-11.3h52.8"/>
  <path class="st1" d="M400.7,335.2h35.6c6.2,0,11.3-5,11.3-11.3v-124.3"/>
  <polygon class="st11" points="726.7 349.8 679.4 431.7 774 431.7 726.7 349.8"/>
  <polygon class="st0" points="726.7 349.8 679.4 431.7 774 431.7 726.7 349.8"/>
  <polygon class="st11" points="618.9 594.4 571.6 676.3 666.2 676.3 618.9 594.4"/>
  <polygon class="st0" points="618.9 594.4 571.6 676.3 666.2 676.3 618.9 594.4"/>
  <g>
    <path class="st5" d="M400.7,486.2h35.6c6.2,0,11.3-5,11.3-11.3v-72.9c0-6.2,5-11.3,11.3-11.3h4.2"/>
    <polygon class="st18" points="454.6 397.9 461.8 390.8 454.6 383.6 460.7 383.6 467.9 390.8 460.7 397.9 454.6 397.9"/>
  </g>
  <g>
    <path class="st7" d="M715,182.5h.4c6.2,0,11.3,5,11.3,11.3v145.8"/>
    <polygon class="st12" points="719.6 331.2 726.7 338.3 733.9 331.2 733.9 337.2 726.7 344.4 719.6 337.2 719.6 331.2"/>
  </g>
  <g>
    <line class="st7" x1="663" y1="390.8" x2="692.1" y2="390.8"/>
    <polygon class="st12" points="683.7 397.9 690.9 390.8 683.7 383.6 689.8 383.6 696.9 390.8 689.8 397.9 683.7 397.9"/>
  </g>
  <g>
    <path class="st7" d="M726.7,431.7v.5c0,6.2-5,11.3-11.3,11.3h-82.8c-6.2,0-11.3,5-11.3,11.3v10.3"/>
    <polygon class="st12" points="614.2 456.7 621.4 463.9 628.5 456.7 628.5 462.8 621.4 469.9 614.2 462.8 614.2 456.7"/>
  </g>
  <g>
    <line class="st7" x1="618.9" y1="540.5" x2="618.9" y2="583.9"/>
    <polygon class="st12" points="611.8 548.9 618.9 541.7 626.1 548.9 626.1 542.8 618.9 535.6 611.8 542.8 611.8 548.9"/>
    <polygon class="st12" points="611.8 575.5 618.9 582.7 626.1 575.5 626.1 581.6 618.9 588.7 611.8 581.6 611.8 575.5"/>
  </g>
  <text class="st16" transform="translate(287.9 263.5)"><tspan x="0" y="0">Label</tspan></text>
  <text class="st13" transform="translate(696.5 414.9)"><tspan x="0" y="0">Persistent </tspan><tspan x="5.3" y="12.2">Memory</tspan></text>
  <text class="st13" transform="translate(585.2 671.4)"><tspan x="0" y="0">Filter State</tspan></text>
  <text class="st16" transform="translate(579.2 186.9)"><tspan x="0" y="0">Constructor</tspan></text>
  <text class="st16" transform="translate(511 395.2)"><tspan x="0" y="0">Receive Aux Data</tspan></text>
  <text class="st16" transform="translate(590.9 499)"><tspan x="0" y="0">Generate </tspan><tspan x="-.9" y="16">Dynamics</tspan></text>
  <text class="st16" transform="translate(880.7 499)"><tspan x="0" y="0">State Transition </tspan><tspan x="23.4" y="16">Function</tspan></text>
  <text class="st16" transform="translate(880.7 575.4)"><tspan x="0" y="0">State Transition </tspan><tspan x="22.1" y="16">Jacobian</tspan></text>
  <text class="st16" transform="translate(885.3 651.7)"><tspan x="0" y="0">Discrete Noise </tspan><tspan x="9.9" y="16">Covariance</tspan></text>
  <text class="st19" transform="translate(263.6 109.2)"><tspan x="0" y="0">User Inputs</tspan></text>
  <text class="st14" transform="translate(260.7 421.1)"><tspan x="0" y="0">Filter Inputs</tspan></text>
  <g>
    <path class="st17" d="M197,18.9h845.2c13.3,0,24.1,10.8,24.1,24.1v30.6H172.9v-30.6c0-13.3,10.8-24.1,24.1-24.1Z"/>
    <text class="st15" transform="translate(390.4 61.1)"><tspan x="0" y="0">pntOS Groundview: State Block</tspan></text>
  </g>
  <text class="st19" transform="translate(577.4 109.2)"><tspan x="0" y="0">State Block</tspan></text>
  <text class="st19" transform="translate(881.5 101.4)"><tspan x="0" y="0">Measurement </tspan><tspan x="-17.8" y="16">Processor Outputs</tspan></text>
  <g>
    <path class="st7" d="M716.7,502.8h59.9c6.2,0,11.3,5,11.3,11.3v130.2c0,6.2,5,11.3,11.3,11.3h28.2"/>
    <polygon class="st12" points="818.9 662.7 826.1 655.5 818.9 648.3 825 648.3 832.2 655.5 825 662.7 818.9 662.7"/>
  </g>
  <g>
    <path class="st6" d="M787.9,542.6v25.3c0,6.2,5,11.3,11.3,11.3h28.2"/>
    <polygon class="st12" points="818.9 586.3 826.1 579.1 818.9 572 825 572 832.2 579.1 825 586.3 818.9 586.3"/>
  </g>
  <g>
    <line class="st7" x1="750.9" y1="502.8" x2="827.3" y2="502.8"/>
    <polygon class="st12" points="818.9 509.9 826.1 502.8 818.9 495.6 825 495.6 832.2 502.8 825 509.9 818.9 509.9"/>
  </g>
  <g>
    <path class="st5" d="M400.7,542.6h35.6c6.2,0,11.3-5,11.3-11.3v-17.2c0-6.2,5-11.3,11.3-11.3h57.3"/>
    <polygon class="st18" points="507.7 509.9 514.8 502.8 507.7 495.6 513.8 495.6 520.9 502.8 513.8 509.9 507.7 509.9"/>
  </g>
  <path class="st5" d="M400.7,599.1h35.6c6.2,0,11.3-5,11.3-11.3v-65.1"/>
  <path class="st5" d="M400.7,655.5h35.6c6.2,0,11.3-5,11.3-11.3v-78.9"/>
</svg>