<svg width="18" height="18" viewBox="0 0 18 18" fill="none" xmlns="http://www.w3.org/2000/svg">
<path d="M9.00023 3.69151C8.79633 3.69151 8.62912 3.52509 8.62912 3.32118V2.76492C7.49315 2.83289 6.43606 3.20243 5.54224 3.79933L5.00784 3.26493C6.14069 2.47351 7.51651 2.00786 9.00015 2.00786C9.12438 2.00786 9.2486 2.0102 9.37126 2.01723V3.32117C9.37126 3.52508 9.20415 3.69151 9.00023 3.69151Z" fill="white"/>
<path d="M4.84693 4.33132L4.32192 3.8063C3.19455 4.82273 2.3992 6.19857 2.11946 7.75401H2.87182C3.09448 6.65632 3.61012 5.66636 4.32576 4.85933L4.72967 5.26403C4.80233 5.3359 4.89686 5.3734 4.9914 5.3734C5.08593 5.3734 5.18046 5.3359 5.25312 5.26403C5.39766 5.11949 5.39766 4.88355 5.25312 4.73901L4.84451 4.33118L4.84693 4.33132Z" fill="white"/>
<path fill-rule="evenodd" clip-rule="evenodd" d="M9.77127 7.57981L11.3385 6.07821C11.4869 5.9368 11.7221 5.94071 11.8627 6.08915C12.0057 6.23759 12.0002 6.47276 11.8518 6.61416L10.326 8.07514C10.5096 8.33843 10.6189 8.65562 10.6189 9.00017C10.6189 9.89237 9.89392 10.6174 9.00171 10.6174C8.11029 10.6174 7.38527 9.89237 7.38527 9.00017C7.38527 8.10796 8.11029 7.38295 9.00171 7.38295C9.27984 7.38295 9.54157 7.45559 9.77127 7.57981ZM8.12513 9.00017C8.12513 9.48223 8.5181 9.8752 9.00015 9.8752C9.48221 9.8752 9.87518 9.48223 9.87518 9.00017C9.87518 8.51812 9.48221 8.12515 9.00015 8.12515C8.5181 8.12515 8.12513 8.51812 8.12513 9.00017Z" fill="white"/>
<path d="M3.31888 8.62364L3.31731 8.62598C3.52122 8.62598 3.68842 8.79786 3.68842 9.00177C3.68842 9.20646 3.52123 9.37288 3.31731 9.37288H2.75714C2.80011 10.1073 2.96886 10.819 3.26183 11.4925C3.34308 11.68 3.25636 11.8988 3.06886 11.9801C2.88135 12.0613 2.66261 11.9746 2.58134 11.7871C2.19929 10.9066 2.00477 9.96827 2.00477 9.00021C2.00477 8.87442 2.00789 8.74786 2.01571 8.62363L3.31888 8.62364Z" fill="white"/>
<path d="M10.2405 2.11966V2.12161L10.2385 2.12096L10.2405 2.11966Z" fill="white"/>
<path d="M10.2405 2.12161L10.2409 2.87188C11.3425 3.09455 12.3363 3.61174 13.1442 4.3313L12.7535 4.72271C12.6082 4.86725 12.6082 5.1024 12.7535 5.24695C12.8254 5.31961 12.9199 5.35633 13.0145 5.35633C13.109 5.35633 13.2035 5.31961 13.2762 5.24695L14.1958 4.3313C13.1786 3.20081 11.7991 2.40134 10.2405 2.12161Z" fill="white"/>
<path d="M14.7426 5.01334C15.5309 6.14461 15.9942 7.51881 15.9942 8.99865V9.00178C15.9942 9.126 15.9903 9.24866 15.9848 9.37133H14.6817C14.4778 9.37133 14.3106 9.2057 14.3106 9.00022C14.3106 8.79473 14.4777 8.6291 14.6817 8.6291H15.2395C15.1731 7.49469 14.8035 6.44144 14.209 5.54782L14.7426 5.01334Z" fill="white"/>
<path d="M14.702 11.5683C14.6184 11.7558 14.702 11.9746 14.8872 12.0582C14.9372 12.0801 14.9895 12.091 15.0395 12.091C15.1801 12.091 15.3153 12.0097 15.377 11.8722C15.6145 11.348 15.7809 10.8003 15.8809 10.2409H15.1262C15.0356 10.6949 14.895 11.1402 14.702 11.5668V11.5683Z" fill="white"/>
<path fill-rule="evenodd" clip-rule="evenodd" d="M0 9.00025C0 4.03831 4.03691 0 9.00025 0C13.9636 0 18.0005 4.03691 18.0005 9.00025C18.0005 11.1105 17.2552 13.1614 15.9036 14.7762C15.7716 14.934 15.538 14.9543 15.381 14.8223C15.2232 14.6911 15.2028 14.4575 15.3341 14.2996C15.6185 13.9606 15.8724 13.6012 16.0966 13.2246C16.0372 13.323 15.9763 13.4207 15.913 13.5168H11.8207C11.2402 14.1551 10.2058 14.5293 9.00022 14.5293C7.79463 14.5293 6.76036 14.1551 6.17974 13.5168H2.09203C3.56863 15.7685 6.11174 17.2591 9.00002 17.2591C10.7876 17.2591 12.4899 16.6974 13.9212 15.6325C14.086 15.5106 14.318 15.5434 14.4399 15.7091C14.5626 15.8739 14.529 16.1059 14.3642 16.2278C12.8047 17.3865 10.9485 18.0005 9 18.0005C4.03666 18.0005 0 13.9622 0 9.00025ZM11.3495 12.9223C11.4198 12.8294 11.5292 12.7754 11.6464 12.7754H16.3411C16.9365 11.6145 17.2552 10.3208 17.2552 9.00034C17.2552 4.44621 13.5505 0.741505 8.99637 0.741505C4.44224 0.741505 0.738341 4.44621 0.738341 9.00034C0.738341 10.3691 1.07585 11.6628 1.66883 12.8012C1.66492 12.7926 1.66023 12.7841 1.65555 12.7755H6.35108C6.46749 12.7755 6.57686 12.8294 6.64718 12.9223C7.04408 13.4466 7.96598 13.7856 8.99885 13.7856C10.0317 13.7856 10.9526 13.4466 11.3495 12.9223Z" fill="white"/>
</svg>
