<svg width="18" height="18" viewBox="0 0 18 18" fill="none" xmlns="http://www.w3.org/2000/svg">
<path d="M15.0587 3.35304C14.1009 2.3259 12.8851 1.54258 11.5144 1.10636C12.2506 1.80759 12.8727 2.80883 13.3313 4.01281C13.9695 3.82973 14.5504 3.60741 15.0587 3.35304ZM15.5386 3.91586C14.9591 4.22191 14.2953 4.48393 13.5668 4.69504C13.9348 5.87729 14.1545 7.2185 14.1862 8.6411L17.2746 8.6411C17.1988 6.8636 16.5628 5.23116 15.5386 3.91586ZM17.2746 9.3589H14.1862C14.1543 10.7874 13.933 12.1339 13.5622 13.3197C14.2872 13.5331 14.9471 13.7971 15.5224 14.1049C16.556 12.786 17.1984 11.1458 17.2746 9.3589ZM15.041 14.6659C14.537 14.4103 13.9601 14.1864 13.3258 14.0016C12.8677 15.1991 12.2476 16.1952 11.5144 16.8936C12.8766 16.4601 14.086 15.6837 15.041 14.6659ZM2.92389 14.6282C3.88431 15.6646 5.10661 16.4548 6.48559 16.8936C5.74655 16.1897 5.12242 15.1833 4.66332 13.973C4.02135 14.1543 3.43638 14.3751 2.92389 14.6282ZM2.44546 14.0636C3.02906 13.7593 3.69673 13.4993 4.42869 13.2904C4.06337 12.1117 3.84541 10.7757 3.81381 9.3589L0.725428 9.3589C0.800818 11.1271 1.43063 12.7518 2.44546 14.0636ZM0.725428 8.6411H3.81381C3.84554 7.2185 4.06518 5.87729 4.43322 4.69504C3.70471 4.48393 3.04087 4.22191 2.46144 3.91586C1.43724 5.23116 0.801213 6.8636 0.725428 8.6411ZM2.94134 3.35304C3.4496 3.60741 4.03053 3.82973 4.66871 4.01281C5.1273 2.80883 5.74944 1.80759 6.48559 1.10636C5.11495 1.54258 3.8991 2.3259 2.94134 3.35304ZM8.6411 17.255L8.6411 13.4197C7.4707 13.4394 6.36221 13.5724 5.36452 13.796C6.11859 15.7376 7.31068 17.0527 8.6411 17.255ZM5.12519 13.1116C6.20144 12.8646 7.39142 12.7218 8.6411 12.7018V9.3589H4.5318C4.56373 10.7238 4.77685 11.9995 5.12519 13.1116ZM4.5318 8.6411H8.6411V5.29723C7.39165 5.27363 6.20286 5.1271 5.12893 4.87653C4.77837 5.99136 4.56385 7.27134 4.5318 8.6411ZM5.36898 4.19255C6.36414 4.41945 7.4712 4.55598 8.6411 4.57926V0.745011C7.3133 0.946882 6.12329 2.25717 5.36898 4.19255ZM9.3589 0.745011L9.3589 4.57926C10.5288 4.55598 11.6359 4.41945 12.631 4.19255C11.8767 2.25717 10.6867 0.946882 9.3589 0.745011ZM12.8711 4.87653C11.7971 5.1271 10.6083 5.27363 9.3589 5.29723V8.6411H13.4682C13.4362 7.27133 13.2216 5.99136 12.8711 4.87653ZM13.4682 9.3589H9.3589L9.3589 12.7039C10.6081 12.7312 11.7957 12.8814 12.8673 13.1356C13.2201 12.0179 13.436 10.7336 13.4682 9.3589ZM12.6265 13.8191C11.6339 13.5888 10.5283 13.4488 9.3589 13.4219V17.255C10.684 17.0535 11.8719 15.7481 12.6265 13.8191ZM9 18C4.02944 18 0 13.9706 0 9C0 4.02944 4.02944 0 9 0C13.9706 0 18 4.02944 18 9C18 13.9706 13.9706 18 9 18Z" fill="white"/>
</svg>
